# xmcd CD database file
#
# Track frame offsets:
#	150
#	32468
#	61089
#	97251
#	127319
#	155297
#	183315
#	209582
#	238136
#	272320
#
# Disc length: 3799 seconds
#
# Revision: 0
# Processed by: cddbd v1.5.2PL0 Copyright (c) Steve Scherf et al.
# Submitted via: CDex 1.51
#
DISCID=8a0ed50a
DTITLE=Jack Sheldon - Listen Up
DYEAR=2006
DGENRE=Jazz
TTITLE0=Isfahan
TTITLE1=So What
TTITLE2=Night in Tunisia
TTITLE3=The Shadow of Your Smile
TTITLE4=Star Eyes
TTITLE5=Lady Bird
TTITLE6=Bernie's Tune
TTITLE7=I Love You
TTITLE8=All Blues
TTITLE9=Round Midnight
EXTD=YEAR: 2006
EXTT0=
EXTT1=
EXTT2=
EXTT3=
EXTT4=
EXTT5=
EXTT6=
EXTT7=
EXTT8=
EXTT9=
PLAYORDER=
